<?xml version="1.0" encoding="UTF-8"?>
<!--
  ConSea Technology — logo lockup, CANONICAL Variant A "ConSea, Sea in gold" (FULL / on-white)
  Approved by Daniel 2026-07-19. Text converted to OUTLINE PATHS from the actual
  variable-font instances (Playfair Display wght=600, Inter wght=500/opsz=14),
  extracted via fontTools (instancer + SVGPathPen) — font-independent production asset,
  renders identically with no font installed/loaded.
  Caveat: layout uses per-glyph advance widths only, no GPOS kerning pairs applied —
  visually correct at these sizes for this short wordmark, but not a substitute for a
  full "Create Outlines" pass in a font-authoring tool if sub-pixel kerning matters later.
  Colorway: navy "Con" + gold-accent-dark #9C6B2E "Sea" (AA 4.61:1) + muted TECHNOLOGY.
  For WHITE / light backgrounds.
-->
<svg xmlns="http://www.w3.org/2000/svg" viewBox="0 0 480 160" width="480" height="160">
  <g transform="translate(20,76)">
  <g transform="translate(0.00,0) scale(0.056000,-0.056000)"><path d="M388.2010498046875 722Q454.2010498046875 722 496.7010498046875 702.5Q539.2010498046875 683 572.2010498046875 657Q592.2010498046875 642 602.7010498046875 653.5Q613.2010498046875 665 617.2010498046875 708H640.2010498046875Q638.2010498046875 669.7999267578125 637.2010498046875 614.9998168945312Q636.2010498046875 560.19970703125 636.2010498046875 469.99951171875H613.2010498046875Q607.401123046875 514.9996337890625 600.2010498046875 545.2999267578125Q593.0009765625 575.6002197265625 580.7007446289062 598.00048828125Q568.4005126953125 620.4007568359375 546.4000244140625 640.0008544921875Q519.4002685546875 670.2001953125 481.80084228515625 684.4999389648438Q444.201416015625 698.7996826171875 403.0020751953125 698.7996826171875Q350.8018798828125 698.7996826171875 312.30194091796875 671.49951171875Q273.802001953125 644.1993408203125 248.502197265625 596.3992309570312Q223.202392578125 548.59912109375 210.70257568359375 485.79925537109375Q198.2027587890625 422.9993896484375 198.2027587890625 352Q198.2027587890625 279.20068359375 211.6025390625 216.7008056640625Q225.0023193359375 154.200927734375 251.5020751953125 107.60076904296875Q278.0018310546875 61.0006103515625 317.70172119140625 34.900390625Q357.401611328125 8.8001708984375 409.0018310546875 8.8001708984375Q446.0013427734375 8.8001708984375 484.80072021484375 22.99993896484375Q523.60009765625 37.19970703125 548.7999267578125 66.3990478515625Q582.0006103515625 96.1990966796875 594.100830078125 137.3995361328125Q606.2010498046875 178.5999755859375 613.2010498046875 248.00048828125H636.2010498046875Q636.2010498046875 154.2003173828125 637.2010498046875 96.7001953125Q638.2010498046875 39.2000732421875 640.2010498046875 0H617.2010498046875Q613.2010498046875 43 603.7010498046875 54.0Q594.2010498046875 65 572.2010498046875 51Q535.2010498046875 25 493.7010498046875 5.5Q452.2010498046875 -14 387.2010498046875 -14Q285.0006103515625 -14 208.10028076171875 29.0Q131.199951171875 72 88.69976806640625 153.0Q46.1995849609375 234 46.1995849609375 348Q46.1995849609375 460 90.19976806640625 544.0Q134.199951171875 628 211.10028076171875 675.0Q288.0006103515625 722 388.2010498046875 722Z" fill="#0F1C2E"/></g>
  <g transform="translate(39.20,0) scale(0.056000,-0.056000)"><path d="M279.600341796875 530.60009765625Q349.20068359375 530.60009765625 402.80084228515625 503.20013427734375Q456.4010009765625 475.8001708984375 487.50103759765625 415.8001708984375Q518.60107421875 355.8001708984375 518.60107421875 257.800048828125Q518.60107421875 159.7999267578125 487.50103759765625 100.09991455078125Q456.4010009765625 40.39990234375 402.80084228515625 13.199951171875Q349.20068359375 -14 279.600341796875 -14Q211 -14 156.89984130859375 13.199951171875Q102.7996826171875 40.39990234375 71.69964599609375 100.09991455078125Q40.599609375 159.7999267578125 40.599609375 257.800048828125Q40.599609375 355.8001708984375 71.69964599609375 415.8001708984375Q102.7996826171875 475.8001708984375 156.89984130859375 503.20013427734375Q211 530.60009765625 279.600341796875 530.60009765625ZM279.600341796875 510.60009765625Q233.4010009765625 510.60009765625 203.50140380859375 451.2000732421875Q173.601806640625 391.800048828125 173.601806640625 257.800048828125Q173.601806640625 123.800048828125 203.50140380859375 64.9000244140625Q233.4010009765625 6 279.600341796875 6Q325.7996826171875 6 355.69927978515625 64.9000244140625Q385.598876953125 123.800048828125 385.598876953125 257.800048828125Q385.598876953125 391.800048828125 355.69927978515625 451.2000732421875Q325.7996826171875 510.60009765625 279.600341796875 510.60009765625Z" fill="#0F1C2E"/></g>
  <g transform="translate(70.50,0) scale(0.056000,-0.056000)"><path d="M385.4012451171875 530.60009765625Q426.6014404296875 530.60009765625 452.50146484375 520.0000610351562Q478.4014892578125 509.4000244140625 494.201416015625 491.800048828125Q511.601318359375 472.60009765625 519.2012939453125 442.60009765625Q526.80126953125 412.60009765625 526.80126953125 361.60009765625V93Q526.80126953125 51 542.3011474609375 36.0Q557.801025390625 21 594.80078125 21V0Q576.6007080078125 1 539.4005737304688 2.5Q502.200439453125 4 466.80029296875 4Q430.2000732421875 4 395.29986572265625 2.5Q360.399658203125 1 342.799560546875 0V21Q374.79931640625 21 387.7991943359375 36.0Q400.799072265625 51 400.799072265625 93V396.40087890625Q400.799072265625 423.400634765625 395.799072265625 444.600341796875Q390.799072265625 465.800048828125 376.0992431640625 478.1998291015625Q361.3994140625 490.599609375 332.599853515625 490.599609375Q300.200439453125 490.599609375 274.7008056640625 472.5999755859375Q249.201171875 454.600341796875 234.5013427734375 423.1009521484375Q219.801513671875 391.6015625 219.801513671875 352.602294921875V93Q219.801513671875 51 233.00140380859375 36.0Q246.2012939453125 21 277.801025390625 21V0Q260.6009521484375 1 226.90081787109375 2.5Q193.20068359375 4 157.800537109375 4Q121.2003173828125 4 83.0001220703125 2.5Q44.7999267578125 1 25.7998046875 0V21Q62.799560546875 21 78.2994384765625 36.0Q93.79931640625 51 93.79931640625 93V407.60009765625Q93.79931640625 452.60009765625 79.3994140625 474.10009765625Q64.99951171875 495.60009765625 25.7998046875 495.60009765625V516.60009765625Q57.7998046875 513.60009765625 87.7998046875 513.60009765625Q125.2003173828125 513.60009765625 158.500732421875 517.10009765625Q191.8011474609375 520.60009765625 219.801513671875 527.60009765625V428.001220703125Q245.00146484375 484.800537109375 289.101318359375 507.7003173828125Q333.201171875 530.60009765625 385.4012451171875 530.60009765625Z" fill="#0F1C2E"/></g>
  <g transform="translate(104.55,0)">
  <g transform="translate(0.00,0) scale(0.056000,-0.056000)"><path d="M274.401123046875 720.2000732421875Q330.4014892578125 720.2000732421875 360.4017333984375 708.1000366210938Q390.4019775390625 696 412.402099609375 682Q424.402099609375 675 431.902099609375 671.5Q439.402099609375 668 446.402099609375 668Q456.402099609375 668 460.902099609375 679.0Q465.402099609375 690 468.402099609375 712H491.402099609375Q490.402099609375 693.39990234375 488.902099609375 668.0997924804688Q487.402099609375 642.7996826171875 486.902099609375 601.2994995117188Q486.402099609375 559.79931640625 486.402099609375 491.9990234375H463.402099609375Q460.0020751953125 542.7991943359375 440.60198974609375 589.9993896484375Q421.201904296875 637.1995849609375 385.5018310546875 667.5997314453125Q349.8017578125 697.9998779296875 295.40185546875 697.9998779296875Q246.0020751953125 697.9998779296875 213.70220947265625 669.2000732421875Q181.40234375 640.4002685546875 181.40234375 591.200439453125Q181.40234375 549.400634765625 202.4022216796875 520.500732421875Q223.402099609375 491.600830078125 261.902099609375 465.30072021484375Q300.402099609375 439.0006103515625 352.6025390625 404.6002197265625Q401.8023681640625 373.000244140625 440.7022705078125 341.70025634765625Q479.6021728515625 310.4002685546875 502.50213623046875 272.000244140625Q525.402099609375 233.6002197265625 525.402099609375 179.2001953125Q525.402099609375 114.0001220703125 493.00189208984375 71.2000732421875Q460.6016845703125 28.4000244140625 407.0013427734375 7.20001220703125Q353.4010009765625 -14 289.400634765625 -14Q230.4002685546875 -14 195.60003662109375 -2.0Q160.7998046875 10 136.399658203125 23Q114.399658203125 37 102.399658203125 37Q92.399658203125 37 87.899658203125 26.0Q83.399658203125 15 80.399658203125 -7H57.399658203125Q59.399658203125 16.0001220703125 59.899658203125 46.9002685546875Q60.399658203125 77.8004150390625 60.899658203125 127.400634765625Q61.399658203125 177.0008544921875 61.399658203125 253.001220703125H84.399658203125Q88.399658203125 189.0009765625 106.899658203125 133.4007568359375Q125.399658203125 77.800537109375 163.899658203125 43.900390625Q202.399658203125 10.000244140625 266.399658203125 10.000244140625Q300.999755859375 10.000244140625 329.2996826171875 22.7001953125Q357.599609375 35.400146484375 374.99951171875 61.89996337890625Q392.3994140625 88.3997802734375 392.3994140625 128.9993896484375Q392.3994140625 170.3994140625 373.09942626953125 201.2994384765625Q353.7994384765625 232.199462890625 319.79949951171875 259.0994873046875Q285.799560546875 285.99951171875 240.399658203125 313.99951171875Q193.399658203125 344.1995849609375 152.399658203125 374.9996337890625Q111.399658203125 405.7996826171875 86.899658203125 445.49969482421875Q62.399658203125 485.19970703125 62.399658203125 540.7996826171875Q62.399658203125 602.599853515625 92.29986572265625 642.2999267578125Q122.2000732421875 682 170.8004150390625 701.1000366210938Q219.4007568359375 720.2000732421875 274.401123046875 720.2000732421875Z" fill="#9C6B2E"/></g>
  <g transform="translate(31.86,0) scale(0.056000,-0.056000)"><path d="M278.400390625 530.60009765625Q366.400390625 530.60009765625 416.3004150390625 477.900146484375Q466.200439453125 425.2001953125 466.200439453125 309H129.201416015625L127.8013916015625 328H350.19921875Q351.7991943359375 377 343.79931640625 418.5Q335.7994384765625 460 318.49969482421875 485.0Q301.199951171875 510 273.2003173828125 510Q234.80078125 510 206.70123291015625 465.40008544921875Q178.6016845703125 420.8001708984375 172.4017333984375 319.60009765625L175.8017578125 314Q174.2017822265625 301.0001220703125 173.601806640625 286.2003173828125Q173.0018310546875 271.4005126953125 173.0018310546875 256.20068359375Q173.0018310546875 187.400634765625 193.20172119140625 142.40087890625Q213.401611328125 97.401123046875 245.3013916015625 76.10137939453125Q277.201171875 54.8016357421875 310.8009033203125 54.8016357421875Q334.4005126953125 54.8016357421875 358.40032958984375 62.10150146484375Q382.400146484375 69.4013671875 405.400146484375 88.40118408203125Q428.400146484375 107.4010009765625 447.4002685546875 141.600830078125L466.2001953125 134.40087890625Q454.8001708984375 98.6007080078125 429.20013427734375 64.20050048828125Q403.60009765625 29.80029296875 364.0 7.900146484375Q324.39990234375 -14 270.399658203125 -14Q201.599853515625 -14 149.6998291015625 16.1998291015625Q97.7998046875 46.399658203125 68.89971923828125 105.49969482421875Q39.9996337890625 164.5997314453125 39.9996337890625 250.600341796875Q39.9996337890625 341.800537109375 70.3997802734375 404.1004638671875Q100.7999267578125 466.400390625 154.80010986328125 498.500244140625Q208.80029296875 530.60009765625 278.400390625 530.60009765625Z" fill="#9C6B2E"/></g>
  <g transform="translate(60.14,0) scale(0.056000,-0.056000)"><path d="M164.9996337890625 -7Q121.5994873046875 -7 91.5994873046875 9.50006103515625Q61.5994873046875 26.0001220703125 46.8995361328125 54.400146484375Q32.1995849609375 82.8001708984375 32.1995849609375 117.800048828125Q32.1995849609375 161 52.09954833984375 188.39996337890625Q71.99951171875 215.7999267578125 103.39947509765625 232.59991455078125Q134.7994384765625 249.39990234375 169.69940185546875 260.69989013671875Q204.599365234375 271.9998779296875 235.99932861328125 282.4998779296875Q267.3992919921875 292.9998779296875 287.29925537109375 307.19989013671875Q307.19921875 321.39990234375 307.19921875 344.39990234375V417.2005615234375Q307.19921875 448.7999267578125 297.4993896484375 469.599853515625Q287.799560546875 490.3997802734375 269.19970703125 500.49993896484375Q250.599853515625 510.60009765625 222.999755859375 510.60009765625Q201.5999755859375 510.60009765625 178.7003173828125 504.60015869140625Q155.8006591796875 498.6002197265625 141.2008056640625 482.2005615234375Q166.6011962890625 474.600341796875 181.4012451171875 455.60015869140625Q196.2012939453125 436.5999755859375 196.2012939453125 410.39990234375Q196.2012939453125 379.3995361328125 175.4010009765625 361.49932861328125Q154.6007080078125 343.59912109375 124.400390625 343.59912109375Q91.0001220703125 343.59912109375 74.09991455078125 364.69927978515625Q57.19970703125 385.7994384765625 57.19970703125 414.3997802734375Q57.19970703125 442.39990234375 71.19976806640625 460.60003662109375Q85.1998291015625 478.8001708984375 109.60009765625 494.4002685546875Q135.4002685546875 510.80029296875 174.10040283203125 520.7001953125Q212.800537109375 530.60009765625 258.800537109375 530.60009765625Q303.000732421875 530.60009765625 337.2010498046875 521.10009765625Q371.4013671875 511.60009765625 394.8016357421875 488.3997802734375Q418.801513671875 465.1998291015625 426.00146484375 431.29986572265625Q433.201416015625 397.39990234375 433.201416015625 347.7998046875V73.800048828125Q433.201416015625 48.800048828125 439.101318359375 38.60009765625Q445.001220703125 28.400146484375 458.2010498046875 28.400146484375Q468.0009765625 28.400146484375 477.00091552734375 33.400146484375Q486.0008544921875 38.400146484375 497.20068359375 47L507.8006591796875 30Q486.400634765625 12.7999267578125 462.00030517578125 2.89996337890625Q437.5999755859375 -7 403.9998779296875 -7Q369.3995361328125 -7 348.59942626953125 3.20001220703125Q327.79931640625 13.4000244140625 318.29931640625 32.0999755859375Q308.79931640625 50.7999267578125 308.3992919921875 76.7996826171875Q283.7994384765625 36.5999755859375 248.6995849609375 14.79998779296875Q213.5997314453125 -7 164.9996337890625 -7ZM224.60107421875 49.0009765625Q248.800537109375 49.0009765625 269.300048828125 61.80059814453125Q289.799560546875 74.6002197265625 307.19921875 101.3995361328125V303.39990234375Q297.1993408203125 288 278.79962158203125 276.0999755859375Q260.39990234375 264.199951171875 239.4002685546875 252.09991455078125Q218.400634765625 239.9998779296875 199.5009765625 224.69989013671875Q180.601318359375 209.39990234375 168.40155029296875 186.60003662109375Q156.2017822265625 163.8001708984375 156.2017822265625 129.4005126953125Q156.2017822265625 90.2005615234375 174.901611328125 69.60076904296875Q193.6014404296875 49.0009765625 224.60107421875 49.0009765625Z" fill="#9C6B2E"/></g>
  </g>
  </g>
  <g transform="translate(21,112)">
  <g transform="translate(0.00,0) scale(0.007324,-0.007324)"><path d="M90.4403076171875 1293.5611572265625V1490H1246.6790771484375V1293.5611572265625H783.638916015625V0H555.1204833984375V1293.5611572265625Z" fill="#666666"/></g>
  <g transform="translate(13.79,0) scale(0.007324,-0.007324)"><path d="M164.880615234375 0V1490H1102.7593994140625V1293.5611572265625H393.3990478515625V849.679443359375H1052.4994506835938V654.6805419921875H393.3990478515625V196.4388427734375H1109.4194946289062V0Z" fill="#666666"/></g>
  <g transform="translate(26.84,0) scale(0.007324,-0.007324)"><path d="M783.8999633789062 -20Q590.56005859375 -20 438.72015380859375 71.69003295898438Q286.8802490234375 163.38006591796875 199.76031494140625 334.7000732421875Q112.640380859375 506.02008056640625 112.640380859375 744Q112.640380859375 983.159912109375 200.03030395507812 1154.5699157714844Q287.42022705078125 1325.9799194335938 439.3501281738281 1417.9899597167969Q591.280029296875 1510 783.8999633789062 1510Q901.5797729492188 1510 1005.1396484375 1476.1900329589844Q1108.6995239257812 1442.3800659179688 1190.3194580078125 1377.3501281738281Q1271.9393920898438 1312.3201904296875 1325.7093811035156 1219.2102966308594Q1379.4793701171875 1126.1004028320312 1398.3994140625 1007.5005493164062H1168.801025390625Q1154.6009521484375 1079.28076171875 1119.5208129882812 1133.8609008789062Q1084.440673828125 1188.4410400390625 1033.1705017089844 1226.2811279296875Q981.9003295898438 1264.1212158203125 918.9501647949219 1283.2212524414062Q856 1302.3212890625 786.0598754882812 1302.3212890625Q657.9996337890625 1302.3212890625 556.7493591308594 1237.6511535644531Q455.49908447265625 1172.9810180664062 397.35888671875 1048.500732421875Q339.21868896484375 924.0204467773438 339.21868896484375 744Q339.21868896484375 563.7196044921875 397.9488830566406 439.3293151855469Q456.6790771484375 314.93902587890625 557.7493591308594 251.30886840820312Q658.8196411132812 187.6787109375 785.6998901367188 187.6787109375Q855.6400146484375 187.6787109375 918.5001831054688 207.18875122070312Q981.3603515625 226.69879150390625 1032.8105163574219 264.1288757324219Q1084.2606811523438 301.5589599609375 1119.5208129882812 356.5491027832031Q1154.7809448242188 411.53924560546875 1169.1610107421875 482.49945068359375H1398.7593994140625Q1381.9193115234375 371.9193115234375 1329.8592529296875 280.29937744140625Q1277.7991943359375 188.679443359375 1196.9892272949219 121.07958984375Q1116.1792602539062 53.479736328125 1011.5394287109375 16.7398681640625Q906.8995971679688 -20 783.8999633789062 -20Z" fill="#666666"/></g>
  <g transform="translate(41.84,0) scale(0.007324,-0.007324)"><path d="M164.880615234375 0V1490H393.3990478515625V860.0394287109375H1131.120849609375V1490H1359.6392822265625V0H1131.120849609375V663.6005859375H393.3990478515625V0Z" fill="#666666"/></g>
  <g transform="translate(57.01,0) scale(0.007324,-0.007324)"><path d="M164.880615234375 0V1490H427.759033203125L988.5808715820312 603.2373046875Q1016.5407104492188 559.2175903320312 1051.6206665039062 497.97772216796875Q1086.7006225585938 436.73785400390625 1125.8406372070312 360.4079895019531Q1164.9806518554688 284.078125 1203.16064453125 194.05841064453125H1174.720703125Q1166.440673828125 279.158447265625 1161.8106994628906 362.6982421875Q1157.1807250976562 446.238037109375 1155.28076171875 518.9877624511719Q1153.3807983398438 591.7374877929688 1153.3807983398438 642.2373046875V1490H1384.0591430664062V0H1119.5407104492188L617.1591796875 793.2822265625Q576.7393188476562 858.4019775390625 538.33935546875 924.141845703125Q499.93939208984375 989.8817138671875 453.4693298339844 1076.1916809082031Q406.999267578125 1162.5016479492188 339.59912109375 1287.0617065429688H375.85906982421875Q381.3990478515625 1177.1416625976562 386.0290222167969 1081.3417358398438Q390.65899658203125 985.5418090820312 393.51898193359375 912.1219482421875Q396.37896728515625 838.7020874023438 396.37896728515625 794.9222412109375V0Z" fill="#666666"/></g>
  <g transform="translate(72.35,0) scale(0.007324,-0.007324)"><path d="M785.7999267578125 -20Q592.6400146484375 -20 440.44012451171875 71.69003295898438Q288.240234375 163.38006591796875 200.4403076171875 334.7000732421875Q112.640380859375 506.02008056640625 112.640380859375 744Q112.640380859375 983.159912109375 200.4403076171875 1154.5699157714844Q288.240234375 1325.9799194335938 440.44012451171875 1417.9899597167969Q592.6400146484375 1510 785.7999267578125 1510Q978.9598388671875 1510 1130.6597290039062 1417.9899597167969Q1282.359619140625 1325.9799194335938 1369.8395385742188 1154.5699157714844Q1457.3194580078125 983.159912109375 1457.3194580078125 744Q1457.3194580078125 505.840087890625 1369.8395385742188 334.52008056640625Q1282.359619140625 163.2000732421875 1130.6597290039062 71.60003662109375Q978.9598388671875 -20 785.7999267578125 -20ZM785.7999267578125 187.6787109375Q913.0401611328125 187.6787109375 1013.5204467773438 251.578857421875Q1114.000732421875 315.47900390625 1172.3709411621094 439.8692932128906Q1230.7411499023438 564.2595825195312 1230.7411499023438 744Q1230.7411499023438 925.5604248046875 1172.3709411621094 1050.0407104492188Q1114.000732421875 1174.52099609375 1013.5204467773438 1238.421142578125Q913.0401611328125 1302.3212890625 785.7999267578125 1302.3212890625Q657.919677734375 1302.3212890625 557.0293884277344 1238.0111389160156Q456.13909912109375 1173.7009887695312 397.67889404296875 1049.220703125Q339.21868896484375 924.7404174804688 339.21868896484375 744Q339.21868896484375 564.2595825195312 397.67889404296875 440.279296875Q456.13909912109375 316.29901123046875 557.0293884277344 251.98886108398438Q657.919677734375 187.6787109375 785.7999267578125 187.6787109375Z" fill="#666666"/></g>
  <g transform="translate(87.85,0) scale(0.007324,-0.007324)"><path d="M164.880615234375 0V1490H393.3990478515625V196.4388427734375H1067.5596923828125V0Z" fill="#666666"/></g>
  <g transform="translate(100.33,0) scale(0.007324,-0.007324)"><path d="M785.7999267578125 -20Q592.6400146484375 -20 440.44012451171875 71.69003295898438Q288.240234375 163.38006591796875 200.4403076171875 334.7000732421875Q112.640380859375 506.02008056640625 112.640380859375 744Q112.640380859375 983.159912109375 200.4403076171875 1154.5699157714844Q288.240234375 1325.9799194335938 440.44012451171875 1417.9899597167969Q592.6400146484375 1510 785.7999267578125 1510Q978.9598388671875 1510 1130.6597290039062 1417.9899597167969Q1282.359619140625 1325.9799194335938 1369.8395385742188 1154.5699157714844Q1457.3194580078125 983.159912109375 1457.3194580078125 744Q1457.3194580078125 505.840087890625 1369.8395385742188 334.52008056640625Q1282.359619140625 163.2000732421875 1130.6597290039062 71.60003662109375Q978.9598388671875 -20 785.7999267578125 -20ZM785.7999267578125 187.6787109375Q913.0401611328125 187.6787109375 1013.5204467773438 251.578857421875Q1114.000732421875 315.47900390625 1172.3709411621094 439.8692932128906Q1230.7411499023438 564.2595825195312 1230.7411499023438 744Q1230.7411499023438 925.5604248046875 1172.3709411621094 1050.0407104492188Q1114.000732421875 1174.52099609375 1013.5204467773438 1238.421142578125Q913.0401611328125 1302.3212890625 785.7999267578125 1302.3212890625Q657.919677734375 1302.3212890625 557.0293884277344 1238.0111389160156Q456.13909912109375 1173.7009887695312 397.67889404296875 1049.220703125Q339.21868896484375 924.7404174804688 339.21868896484375 744Q339.21868896484375 564.2595825195312 397.67889404296875 440.279296875Q456.13909912109375 316.29901123046875 557.0293884277344 251.98886108398438Q657.919677734375 187.6787109375 785.7999267578125 187.6787109375Z" fill="#666666"/></g>
  <g transform="translate(115.83,0) scale(0.007324,-0.007324)"><path d="M790.9799194335938 -20Q588.7400512695312 -20 436.1301574707031 72.91000366210938Q283.520263671875 165.82000732421875 198.080322265625 337.2300109863281Q112.640380859375 508.6400146484375 112.640380859375 743.6400146484375Q112.640380859375 982.2599487304688 199.25027465820312 1153.7599487304688Q285.86016845703125 1325.2599487304688 436.9200439453125 1417.6299743652344Q587.9799194335938 1510 780.7798461914062 1510Q901.2997436523438 1510 1005.7796630859375 1474.5500183105469Q1110.2595825195312 1439.1000366210938 1192.51953125 1373.3800659179688Q1274.7794799804688 1307.6600952148438 1328.2794799804688 1217.4401245117188Q1381.7794799804688 1127.2201538085938 1400.3395385742188 1018.5001831054688H1166.1810913085938Q1145.7009887695312 1084.3804321289062 1110.8508605957031 1136.5206298828125Q1076.000732421875 1188.6608276367188 1027.4605712890625 1225.9709777832031Q978.92041015625 1263.2811279296875 917.6902160644531 1282.8012084960938Q856.4600219726562 1302.3212890625 783.039794921875 1302.3212890625Q657.4395751953125 1302.3212890625 556.7393188476562 1238.2411499023438Q456.0390625 1174.1610107421875 397.6288757324219 1049.7707214355469Q339.21868896484375 925.3804321289062 339.21868896484375 744.719970703125Q339.21868896484375 565.3395385742188 397.7688903808594 441.17926025390625Q456.319091796875 317.01898193359375 558.3893737792969 252.34884643554688Q660.4596557617188 187.6787109375 791.6998901367188 187.6787109375Q911.5801391601562 187.6787109375 1001.3703918457031 236.40890502929688Q1091.16064453125 285.13909912109375 1140.5208129882812 374.8194580078125Q1189.8809814453125 464.49981689453125 1189.8809814453125 586.4403076171875L1249.2208862304688 575.9802856445312H824.7601318359375V763.9393920898438H1412.5994873046875V593.19970703125Q1412.5994873046875 404.77984619140625 1332.3395385742188 267.2499084472656Q1252.07958984375 129.719970703125 1112.0596923828125 54.8599853515625Q972.039794921875 -20 790.9799194335938 -20Z" fill="#666666"/></g>
  <g transform="translate(131.05,0) scale(0.007324,-0.007324)"><path d="M600.1799926757812 0V593.440673828125L50.9200439453125 1490H316.81817626953125L597.4187622070312 1014.5797729492188Q643.638916015625 937.1796264648438 679.3490295410156 865.299560546875Q715.0591430664062 793.4194946289062 752.999267578125 686.8192749023438H680.0591430664062Q717.6392822265625 795.0595092773438 753.3994140625 867.7595825195312Q789.1595458984375 940.4596557617188 832.7396850585938 1014.5797729492188L1110.0003662109375 1490H1374.718505859375L828.3384399414062 593.440673828125V0Z" fill="#666666"/></g>
  </g>
</svg>
