<?xml version="1.0" encoding="UTF-8"?>
<!--
  ConSea Technology — CANONICAL favicon / app-icon monogram "CS"
  Approved by Daniel 2026-07-19, part of canonical Variant A. Outline path (Playfair
  Display wght=600), font-independent. Navy-deep #0B1623 square + bright gold-accent
  #C5A059 (~7.4:1 on navy-deep — correct bright gold, same rule as on-navy wordmark).
  For actual favicon delivery, also export flattened PNG/ICO raster sizes (16/32/48/180px)
  — out of scope for this SVG source (Mack/production, not this design-token deliverable).
-->
<svg xmlns="http://www.w3.org/2000/svg" viewBox="0 0 64 64" width="64" height="64">
  <rect width="64" height="64" fill="#0B1623"/>
  <g transform="translate(14.23,42.08)">
  <g transform="translate(0.00,0) scale(0.028000,-0.028000)"><path d="M388.2010498046875 722Q454.2010498046875 722 496.7010498046875 702.5Q539.2010498046875 683 572.2010498046875 657Q592.2010498046875 642 602.7010498046875 653.5Q613.2010498046875 665 617.2010498046875 708H640.2010498046875Q638.2010498046875 669.7999267578125 637.2010498046875 614.9998168945312Q636.2010498046875 560.19970703125 636.2010498046875 469.99951171875H613.2010498046875Q607.401123046875 514.9996337890625 600.2010498046875 545.2999267578125Q593.0009765625 575.6002197265625 580.7007446289062 598.00048828125Q568.4005126953125 620.4007568359375 546.4000244140625 640.0008544921875Q519.4002685546875 670.2001953125 481.80084228515625 684.4999389648438Q444.201416015625 698.7996826171875 403.0020751953125 698.7996826171875Q350.8018798828125 698.7996826171875 312.30194091796875 671.49951171875Q273.802001953125 644.1993408203125 248.502197265625 596.3992309570312Q223.202392578125 548.59912109375 210.70257568359375 485.79925537109375Q198.2027587890625 422.9993896484375 198.2027587890625 352Q198.2027587890625 279.20068359375 211.6025390625 216.7008056640625Q225.0023193359375 154.200927734375 251.5020751953125 107.60076904296875Q278.0018310546875 61.0006103515625 317.70172119140625 34.900390625Q357.401611328125 8.8001708984375 409.0018310546875 8.8001708984375Q446.0013427734375 8.8001708984375 484.80072021484375 22.99993896484375Q523.60009765625 37.19970703125 548.7999267578125 66.3990478515625Q582.0006103515625 96.1990966796875 594.100830078125 137.3995361328125Q606.2010498046875 178.5999755859375 613.2010498046875 248.00048828125H636.2010498046875Q636.2010498046875 154.2003173828125 637.2010498046875 96.7001953125Q638.2010498046875 39.2000732421875 640.2010498046875 0H617.2010498046875Q613.2010498046875 43 603.7010498046875 54.0Q594.2010498046875 65 572.2010498046875 51Q535.2010498046875 25 493.7010498046875 5.5Q452.2010498046875 -14 387.2010498046875 -14Q285.0006103515625 -14 208.10028076171875 29.0Q131.199951171875 72 88.69976806640625 153.0Q46.1995849609375 234 46.1995849609375 348Q46.1995849609375 460 90.19976806640625 544.0Q134.199951171875 628 211.10028076171875 675.0Q288.0006103515625 722 388.2010498046875 722Z" fill="#C5A059"/></g>
  <g transform="translate(19.60,0) scale(0.028000,-0.028000)"><path d="M274.401123046875 720.2000732421875Q330.4014892578125 720.2000732421875 360.4017333984375 708.1000366210938Q390.4019775390625 696 412.402099609375 682Q424.402099609375 675 431.902099609375 671.5Q439.402099609375 668 446.402099609375 668Q456.402099609375 668 460.902099609375 679.0Q465.402099609375 690 468.402099609375 712H491.402099609375Q490.402099609375 693.39990234375 488.902099609375 668.0997924804688Q487.402099609375 642.7996826171875 486.902099609375 601.2994995117188Q486.402099609375 559.79931640625 486.402099609375 491.9990234375H463.402099609375Q460.0020751953125 542.7991943359375 440.60198974609375 589.9993896484375Q421.201904296875 637.1995849609375 385.5018310546875 667.5997314453125Q349.8017578125 697.9998779296875 295.40185546875 697.9998779296875Q246.0020751953125 697.9998779296875 213.70220947265625 669.2000732421875Q181.40234375 640.4002685546875 181.40234375 591.200439453125Q181.40234375 549.400634765625 202.4022216796875 520.500732421875Q223.402099609375 491.600830078125 261.902099609375 465.30072021484375Q300.402099609375 439.0006103515625 352.6025390625 404.6002197265625Q401.8023681640625 373.000244140625 440.7022705078125 341.70025634765625Q479.6021728515625 310.4002685546875 502.50213623046875 272.000244140625Q525.402099609375 233.6002197265625 525.402099609375 179.2001953125Q525.402099609375 114.0001220703125 493.00189208984375 71.2000732421875Q460.6016845703125 28.4000244140625 407.0013427734375 7.20001220703125Q353.4010009765625 -14 289.400634765625 -14Q230.4002685546875 -14 195.60003662109375 -2.0Q160.7998046875 10 136.399658203125 23Q114.399658203125 37 102.399658203125 37Q92.399658203125 37 87.899658203125 26.0Q83.399658203125 15 80.399658203125 -7H57.399658203125Q59.399658203125 16.0001220703125 59.899658203125 46.9002685546875Q60.399658203125 77.8004150390625 60.899658203125 127.400634765625Q61.399658203125 177.0008544921875 61.399658203125 253.001220703125H84.399658203125Q88.399658203125 189.0009765625 106.899658203125 133.4007568359375Q125.399658203125 77.800537109375 163.899658203125 43.900390625Q202.399658203125 10.000244140625 266.399658203125 10.000244140625Q300.999755859375 10.000244140625 329.2996826171875 22.7001953125Q357.599609375 35.400146484375 374.99951171875 61.89996337890625Q392.3994140625 88.3997802734375 392.3994140625 128.9993896484375Q392.3994140625 170.3994140625 373.09942626953125 201.2994384765625Q353.7994384765625 232.199462890625 319.79949951171875 259.0994873046875Q285.799560546875 285.99951171875 240.399658203125 313.99951171875Q193.399658203125 344.1995849609375 152.399658203125 374.9996337890625Q111.399658203125 405.7996826171875 86.899658203125 445.49969482421875Q62.399658203125 485.19970703125 62.399658203125 540.7996826171875Q62.399658203125 602.599853515625 92.29986572265625 642.2999267578125Q122.2000732421875 682 170.8004150390625 701.1000366210938Q219.4007568359375 720.2000732421875 274.401123046875 720.2000732421875Z" fill="#C5A059"/></g>
  </g>
</svg>
