<?xml version="1.0" encoding="UTF-8"?>
<!--
  ConSea Technology — CANONICAL favicon / app-icon monogram "C"
  Approved by Daniel 2026-07-19, part of canonical Variant A. Outline path (Playfair
  Display wght=600), font-independent. Navy-deep #0B1623 square + bright gold-accent
  #C5A059 (~7.4:1 on navy-deep — correct bright gold, same rule as on-navy wordmark).
  For actual favicon delivery, also export flattened PNG/ICO raster sizes (16/32/48/180px)
  — out of scope for this SVG source (Mack/production, not this design-token deliverable).
-->
<svg xmlns="http://www.w3.org/2000/svg" viewBox="0 0 64 64" width="64" height="64">
  <rect width="64" height="64" fill="#0B1623"/>
  <g transform="translate(18.70,45.68)">
  <g transform="translate(0.00,0) scale(0.038000,-0.038000)"><path d="M388.2010498046875 722Q454.2010498046875 722 496.7010498046875 702.5Q539.2010498046875 683 572.2010498046875 657Q592.2010498046875 642 602.7010498046875 653.5Q613.2010498046875 665 617.2010498046875 708H640.2010498046875Q638.2010498046875 669.7999267578125 637.2010498046875 614.9998168945312Q636.2010498046875 560.19970703125 636.2010498046875 469.99951171875H613.2010498046875Q607.401123046875 514.9996337890625 600.2010498046875 545.2999267578125Q593.0009765625 575.6002197265625 580.7007446289062 598.00048828125Q568.4005126953125 620.4007568359375 546.4000244140625 640.0008544921875Q519.4002685546875 670.2001953125 481.80084228515625 684.4999389648438Q444.201416015625 698.7996826171875 403.0020751953125 698.7996826171875Q350.8018798828125 698.7996826171875 312.30194091796875 671.49951171875Q273.802001953125 644.1993408203125 248.502197265625 596.3992309570312Q223.202392578125 548.59912109375 210.70257568359375 485.79925537109375Q198.2027587890625 422.9993896484375 198.2027587890625 352Q198.2027587890625 279.20068359375 211.6025390625 216.7008056640625Q225.0023193359375 154.200927734375 251.5020751953125 107.60076904296875Q278.0018310546875 61.0006103515625 317.70172119140625 34.900390625Q357.401611328125 8.8001708984375 409.0018310546875 8.8001708984375Q446.0013427734375 8.8001708984375 484.80072021484375 22.99993896484375Q523.60009765625 37.19970703125 548.7999267578125 66.3990478515625Q582.0006103515625 96.1990966796875 594.100830078125 137.3995361328125Q606.2010498046875 178.5999755859375 613.2010498046875 248.00048828125H636.2010498046875Q636.2010498046875 154.2003173828125 637.2010498046875 96.7001953125Q638.2010498046875 39.2000732421875 640.2010498046875 0H617.2010498046875Q613.2010498046875 43 603.7010498046875 54.0Q594.2010498046875 65 572.2010498046875 51Q535.2010498046875 25 493.7010498046875 5.5Q452.2010498046875 -14 387.2010498046875 -14Q285.0006103515625 -14 208.10028076171875 29.0Q131.199951171875 72 88.69976806640625 153.0Q46.1995849609375 234 46.1995849609375 348Q46.1995849609375 460 90.19976806640625 544.0Q134.199951171875 628 211.10028076171875 675.0Q288.0006103515625 722 388.2010498046875 722Z" fill="#C5A059"/></g>
  </g>
</svg>
